<mxfile host="Electron" agent="Mozilla/5.0 (Windows NT 10.0; Win64; x64) AppleWebKit/537.36 (KHTML, like Gecko) draw.io/28.0.6 Chrome/138.0.7204.100 Electron/37.2.3 Safari/537.36" version="28.0.6">
  <diagram name="Page-1" id="k8XnCEv2SowsTTEoivaE">
    <mxGraphModel dx="1181" dy="687" grid="1" gridSize="10" guides="1" tooltips="1" connect="1" arrows="1" fold="1" page="1" pageScale="1" pageWidth="850" pageHeight="1100" math="0" shadow="0" adaptiveColors="auto">
      <root>
        <mxCell id="0" />
        <mxCell id="1" parent="0" />
        <mxCell id="-6DBQfd8F7PWS6xgnMug-20" style="edgeStyle=orthogonalEdgeStyle;rounded=0;orthogonalLoop=1;jettySize=auto;html=1;exitX=1;exitY=0.5;exitDx=0;exitDy=0;" parent="1" source="-6DBQfd8F7PWS6xgnMug-1" target="-6DBQfd8F7PWS6xgnMug-8" edge="1">
          <mxGeometry relative="1" as="geometry">
            <mxPoint x="390" y="150" as="targetPoint" />
            <Array as="points">
              <mxPoint x="390" y="120" />
            </Array>
          </mxGeometry>
        </mxCell>
        <mxCell id="-6DBQfd8F7PWS6xgnMug-1" value="&lt;b&gt;&lt;font&gt;Afterburner&lt;/font&gt;&lt;/b&gt;&lt;br&gt;&lt;br&gt;Applies beam effects and crossing angle to particles" style="rounded=1;whiteSpace=wrap;html=1;spacingLeft=5;spacingRight=5;fillColor=#b0e3e6;strokeColor=#0e8088;labelBackgroundColor=none;spacingTop=10;" parent="1" vertex="1">
          <mxGeometry x="260" y="60" width="120" height="120" as="geometry" />
        </mxCell>
        <mxCell id="-6DBQfd8F7PWS6xgnMug-18" style="edgeStyle=orthogonalEdgeStyle;rounded=0;orthogonalLoop=1;jettySize=auto;html=1;exitX=0.5;exitY=0;exitDx=0;exitDy=0;entryX=0;entryY=0.5;entryDx=0;entryDy=0;" parent="1" source="-6DBQfd8F7PWS6xgnMug-2" target="-6DBQfd8F7PWS6xgnMug-1" edge="1">
          <mxGeometry relative="1" as="geometry" />
        </mxCell>
        <mxCell id="-6DBQfd8F7PWS6xgnMug-2" value="HepMC" style="ellipse;whiteSpace=wrap;html=1;aspect=fixed;fillColor=#fad7ac;strokeColor=#b46504;" parent="1" vertex="1">
          <mxGeometry x="200" y="180" width="80" height="80" as="geometry" />
        </mxCell>
        <mxCell id="-6DBQfd8F7PWS6xgnMug-5" value="&lt;b&gt;&lt;font&gt;DD4Hep&lt;/font&gt;&lt;/b&gt;&lt;div&gt;&lt;br&gt;Full simulation of&amp;nbsp;&lt;span style=&quot;background-color: transparent; color: light-dark(rgb(0, 0, 0), rgb(237, 237, 237));&quot;&gt;the detector&lt;/span&gt;&lt;/div&gt;" style="rounded=1;whiteSpace=wrap;html=1;spacingLeft=9;spacingRight=5;fillColor=#b0e3e6;strokeColor=#0e8088;labelBackgroundColor=none;spacingTop=10;" parent="1" vertex="1">
          <mxGeometry x="420" y="60" width="100" height="120" as="geometry" />
        </mxCell>
        <mxCell id="-6DBQfd8F7PWS6xgnMug-6" value="&lt;b&gt;&lt;font&gt;EicRecon&lt;/font&gt;&lt;/b&gt;&lt;div&gt;&lt;br&gt;Reconstructs events like they are read from&amp;nbsp; detector&lt;/div&gt;" style="rounded=1;whiteSpace=wrap;html=1;spacingLeft=10;spacingRight=7;fillColor=#b0e3e6;strokeColor=#0e8088;labelBackgroundColor=none;spacingTop=10;" parent="1" vertex="1">
          <mxGeometry x="560" y="60" width="110" height="120" as="geometry" />
        </mxCell>
        <mxCell id="-6DBQfd8F7PWS6xgnMug-7" value="&lt;b&gt;&lt;font&gt;CSV converter&lt;/font&gt;&lt;/b&gt;&lt;div&gt;&lt;br&gt;&lt;/div&gt;" style="rounded=1;whiteSpace=wrap;html=1;spacingLeft=10;spacingRight=7;fillColor=#bac8d3;strokeColor=#23445d;labelBackgroundColor=none;spacingTop=10;" parent="1" vertex="1">
          <mxGeometry x="710" y="90" width="80" height="60" as="geometry" />
        </mxCell>
        <mxCell id="-6DBQfd8F7PWS6xgnMug-21" style="edgeStyle=orthogonalEdgeStyle;rounded=0;orthogonalLoop=1;jettySize=auto;html=1;exitX=0.5;exitY=0;exitDx=0;exitDy=0;entryX=0;entryY=0.5;entryDx=0;entryDy=0;" parent="1" source="-6DBQfd8F7PWS6xgnMug-8" target="-6DBQfd8F7PWS6xgnMug-5" edge="1">
          <mxGeometry relative="1" as="geometry" />
        </mxCell>
        <mxCell id="-6DBQfd8F7PWS6xgnMug-8" value="HepMC" style="ellipse;whiteSpace=wrap;html=1;aspect=fixed;fillColor=#fad7ac;strokeColor=#b46504;" parent="1" vertex="1">
          <mxGeometry x="360" y="180" width="80" height="80" as="geometry" />
        </mxCell>
        <mxCell id="-6DBQfd8F7PWS6xgnMug-28" style="edgeStyle=orthogonalEdgeStyle;rounded=0;orthogonalLoop=1;jettySize=auto;html=1;exitX=0.5;exitY=0;exitDx=0;exitDy=0;entryX=0;entryY=0.5;entryDx=0;entryDy=0;" parent="1" source="-6DBQfd8F7PWS6xgnMug-9" target="-6DBQfd8F7PWS6xgnMug-6" edge="1">
          <mxGeometry relative="1" as="geometry" />
        </mxCell>
        <mxCell id="-6DBQfd8F7PWS6xgnMug-9" value="Edm4HEP" style="ellipse;whiteSpace=wrap;html=1;aspect=fixed;fillColor=#fad7ac;strokeColor=#b46504;" parent="1" vertex="1">
          <mxGeometry x="500" y="180" width="80" height="80" as="geometry" />
        </mxCell>
        <mxCell id="-6DBQfd8F7PWS6xgnMug-29" style="edgeStyle=orthogonalEdgeStyle;rounded=0;orthogonalLoop=1;jettySize=auto;html=1;exitX=0.5;exitY=0;exitDx=0;exitDy=0;entryX=0;entryY=0.5;entryDx=0;entryDy=0;" parent="1" source="-6DBQfd8F7PWS6xgnMug-10" target="-6DBQfd8F7PWS6xgnMug-7" edge="1">
          <mxGeometry relative="1" as="geometry" />
        </mxCell>
        <mxCell id="-6DBQfd8F7PWS6xgnMug-10" value="Edm4EIC" style="ellipse;whiteSpace=wrap;html=1;aspect=fixed;fillColor=#fad7ac;strokeColor=#b46504;" parent="1" vertex="1">
          <mxGeometry x="650" y="180" width="80" height="80" as="geometry" />
        </mxCell>
        <mxCell id="-6DBQfd8F7PWS6xgnMug-17" style="edgeStyle=orthogonalEdgeStyle;rounded=0;orthogonalLoop=1;jettySize=auto;html=1;exitX=1;exitY=0.5;exitDx=0;exitDy=0;entryX=0.372;entryY=0;entryDx=0;entryDy=0;entryPerimeter=0;" parent="1" source="-6DBQfd8F7PWS6xgnMug-12" target="-6DBQfd8F7PWS6xgnMug-2" edge="1">
          <mxGeometry relative="1" as="geometry">
            <Array as="points">
              <mxPoint x="220" y="120" />
              <mxPoint x="230" y="120" />
            </Array>
          </mxGeometry>
        </mxCell>
        <mxCell id="-6DBQfd8F7PWS6xgnMug-11" value="Monte-Carlo&lt;br&gt;&lt;br&gt;Generates particles according to theory" style="rounded=1;whiteSpace=wrap;spacingLeft=5;spacingRight=5;fillColor=#fad9d5;strokeColor=#ae4132;labelBackgroundColor=none;spacingTop=10;fontColor=default;textShadow=0;html=1;convertToSvg=0;" parent="1" vertex="1">
          <mxGeometry y="60" width="100" height="120" as="geometry" />
        </mxCell>
        <mxCell id="-6DBQfd8F7PWS6xgnMug-12" value="HepMC converter" style="rounded=1;whiteSpace=wrap;html=1;fillColor=#bac8d3;strokeColor=#23445d;" parent="1" vertex="1">
          <mxGeometry x="140" y="100" width="80" height="40" as="geometry" />
        </mxCell>
        <mxCell id="-6DBQfd8F7PWS6xgnMug-13" value="CSV" style="ellipse;whiteSpace=wrap;html=1;aspect=fixed;fillColor=#fad7ac;strokeColor=#b46504;" parent="1" vertex="1">
          <mxGeometry x="770" y="180" width="80" height="80" as="geometry" />
        </mxCell>
        <mxCell id="-6DBQfd8F7PWS6xgnMug-22" style="edgeStyle=orthogonalEdgeStyle;rounded=0;orthogonalLoop=1;jettySize=auto;html=1;exitX=1;exitY=0.5;exitDx=0;exitDy=0;" parent="1" edge="1">
          <mxGeometry relative="1" as="geometry">
            <mxPoint x="530" y="180" as="targetPoint" />
            <mxPoint x="520" y="119" as="sourcePoint" />
            <Array as="points">
              <mxPoint x="530" y="119" />
            </Array>
          </mxGeometry>
        </mxCell>
        <mxCell id="-6DBQfd8F7PWS6xgnMug-24" style="edgeStyle=orthogonalEdgeStyle;rounded=0;orthogonalLoop=1;jettySize=auto;html=1;exitX=1;exitY=0.5;exitDx=0;exitDy=0;" parent="1" edge="1">
          <mxGeometry relative="1" as="geometry">
            <mxPoint x="680" y="181" as="targetPoint" />
            <mxPoint x="670" y="120" as="sourcePoint" />
            <Array as="points">
              <mxPoint x="680" y="120" />
            </Array>
          </mxGeometry>
        </mxCell>
        <mxCell id="-6DBQfd8F7PWS6xgnMug-26" style="edgeStyle=orthogonalEdgeStyle;rounded=0;orthogonalLoop=1;jettySize=auto;html=1;exitX=1;exitY=0.5;exitDx=0;exitDy=0;" parent="1" edge="1">
          <mxGeometry relative="1" as="geometry">
            <mxPoint x="800" y="180" as="targetPoint" />
            <mxPoint x="790" y="119" as="sourcePoint" />
            <Array as="points">
              <mxPoint x="800" y="119" />
            </Array>
          </mxGeometry>
        </mxCell>
        <mxCell id="gTxR9aT5FaZFuXCpAjNu-1" value="custom&lt;br&gt;.root" style="ellipse;whiteSpace=wrap;html=1;aspect=fixed;fillColor=#fad7ac;strokeColor=#b46504;" vertex="1" parent="1">
          <mxGeometry x="80" y="180" width="80" height="80" as="geometry" />
        </mxCell>
        <mxCell id="gTxR9aT5FaZFuXCpAjNu-2" style="edgeStyle=orthogonalEdgeStyle;rounded=0;orthogonalLoop=1;jettySize=auto;html=1;exitX=0.5;exitY=0;exitDx=0;exitDy=0;entryX=0;entryY=0.5;entryDx=0;entryDy=0;" edge="1" parent="1" source="gTxR9aT5FaZFuXCpAjNu-1" target="-6DBQfd8F7PWS6xgnMug-12">
          <mxGeometry relative="1" as="geometry">
            <mxPoint x="100" y="160" as="sourcePoint" />
            <mxPoint x="120" y="100" as="targetPoint" />
          </mxGeometry>
        </mxCell>
        <mxCell id="gTxR9aT5FaZFuXCpAjNu-5" style="edgeStyle=orthogonalEdgeStyle;rounded=0;orthogonalLoop=1;jettySize=auto;html=1;exitX=1;exitY=0.5;exitDx=0;exitDy=0;entryX=0.372;entryY=0;entryDx=0;entryDy=0;entryPerimeter=0;" edge="1" parent="1">
          <mxGeometry relative="1" as="geometry">
            <Array as="points">
              <mxPoint x="100" y="120" />
              <mxPoint x="110" y="120" />
            </Array>
            <mxPoint x="100" y="120" as="sourcePoint" />
            <mxPoint x="110" y="180" as="targetPoint" />
          </mxGeometry>
        </mxCell>
        <mxCell id="gTxR9aT5FaZFuXCpAjNu-7" value="" style="shape=curlyBracket;whiteSpace=wrap;html=1;rounded=1;flipH=1;labelPosition=right;verticalLabelPosition=middle;align=left;verticalAlign=middle;rotation=-90;size=0.5;strokeWidth=2;fillColor=#0050ef;fontColor=#ffffff;strokeColor=#001DBC;" vertex="1" parent="1">
          <mxGeometry x="456.25" y="-156.25" width="20" height="417.5" as="geometry" />
        </mxCell>
        <mxCell id="gTxR9aT5FaZFuXCpAjNu-8" value="&lt;i&gt;&lt;font style=&quot;font-size: 10px;&quot;&gt;Standard EIC ePIC chain (eic-shell)&amp;nbsp;&lt;/font&gt;&lt;/i&gt;" style="text;html=1;align=center;verticalAlign=middle;whiteSpace=wrap;rounded=0;fontColor=#1BA6FF;" vertex="1" parent="1">
          <mxGeometry x="360" y="20" width="210" height="30" as="geometry" />
        </mxCell>
      </root>
    </mxGraphModel>
  </diagram>
</mxfile>
